<svg width="366" height="66" viewBox="0 0 366 66" fill="none" xmlns="http://www.w3.org/2000/svg">
<g clip-path="url(#clip0_3809_3972)">
<path d="M22.0898 45.9182C29.407 45.9182 34.2823 47.4915 34.2823 53.7162C34.2823 61.3 26.9651 65.5913 16.7073 65.5184C6.81065 65.4455 0.925104 61.5143 0.925104 54.3593C0.925104 52.2158 1.64306 50.2095 2.79094 48.5675C0.99819 46.8527 -0.0078125 44.5635 -0.0078125 42.1284C-0.0078125 39.3376 1.42811 36.0494 4.65247 34.4032C3.5046 32.4741 2.85972 30.2534 2.85972 27.7498C2.85972 20.3847 9.24397 14.7344 17.1329 14.7344H33.4138V19.8145H27.8206C29.4715 21.8894 30.4732 24.5345 30.4732 27.7541C30.4732 35.2649 24.4501 40.9152 16.703 40.9152C13.7624 40.9152 11.0367 40.1264 8.81405 38.6988C6.94822 39.269 5.87343 40.4136 5.87343 42.1327C5.87343 44.422 8.0961 45.9224 10.9679 45.9224H22.0855L22.0898 45.9182ZM28.4741 54.2135C28.4741 51.4956 26.1096 51.2083 20.8001 51.2083H9.68248C9.1107 51.2083 8.53461 51.1355 7.96282 51.0669C7.10299 52.07 6.67308 53.1418 6.67308 54.355C6.67308 58.2905 10.1855 60.1468 16.7159 60.1468C23.6719 60.1468 28.4784 57.7846 28.4784 54.2092L28.4741 54.2135ZM8.46152 27.7498C8.46152 32.2554 11.9051 35.6893 16.7116 35.6893C21.5181 35.6893 24.9617 32.3283 24.9617 27.7498C24.9617 23.4585 21.733 20.1703 16.7847 20.1703C11.8364 20.1703 8.46582 23.5313 8.46582 27.7498H8.46152Z" fill="white"/>
<path d="M58.672 16.0205L56.3032 21.3835C55.2284 21.0277 53.8656 20.7405 52.6446 20.7405C47.5501 20.7405 43.5347 24.1744 43.5347 31.1108V51.2083H37.7266V15.5918H42.1719L43.0317 19.5273C45.3275 16.3077 49.201 14.7344 53.1433 14.7344C55.2241 14.7344 57.2318 15.3774 58.6678 16.0205H58.672Z" fill="white"/>
<path d="M154.416 29.2545V51.2126H148.607V30.3263C148.607 23.2441 143.947 20.6719 139.498 20.6719C133.831 20.6719 130.031 24.9632 130.031 30.6864V51.2126H124.223V15.5918H128.668L129.601 19.6687C132.683 16.0934 136.918 14.7344 140.289 14.7344C147.103 14.7344 154.42 19.4544 154.42 29.2545H154.416Z" fill="white"/>
<path d="M177.944 14.3744V15.5919H185.906V21.3837H177.944V51.2084H172.204V21.3837H166.035V15.5919H172.204V13.7313C172.204 4.29131 177.08 0 184.685 0C185.906 0 187.196 0.0728793 188.485 0.28723V5.5817C187.479 5.44023 186.551 5.36735 185.687 5.36735C180.162 5.36735 177.94 8.29967 177.94 14.3787L177.944 14.3744Z" fill="white"/>
<path d="M212.584 15.5918H218.393V51.2126H214.089L213.014 47.1357C210.001 50.6382 205.697 52.07 202.327 52.07C195.512 52.07 188.195 47.4229 188.195 37.1941V15.5918H194.003V35.9037C194.003 43.4874 198.664 46.1325 203.113 46.1325C208.565 46.1325 212.58 41.9827 212.58 35.0463V15.5918H212.584Z" fill="white"/>
<path d="M251.744 29.2545V51.2126H245.936V30.3263C245.936 23.2441 241.275 20.6719 236.826 20.6719C231.159 20.6719 227.359 24.9632 227.359 30.6864V51.2126H221.551V15.5918H225.996L226.929 19.6687C230.011 16.0934 234.246 14.7344 237.617 14.7344C244.431 14.7344 251.748 19.4544 251.748 29.2545H251.744Z" fill="white"/>
<path d="M278.638 1.14453H284.446V51.2126H280.001L279.141 47.0628C276.987 50.2823 273.118 52.07 268.668 52.07C260.276 52.07 253.965 45.8453 253.965 34.5447V32.6841C253.965 23.8143 258.341 14.7301 268.384 14.7301C272.473 14.7301 276.058 16.2306 278.642 19.5959V1.14453H278.638ZM278.638 34.9048V32.0454C278.638 24.7489 275.121 20.4576 269.24 20.4576C263.359 20.4576 259.773 24.676 259.773 32.7613V34.3346C259.773 42.0598 263.573 46.5655 269.24 46.5655C274.906 46.5655 278.638 42.0598 278.638 34.9091V34.9048Z" fill="white"/>
<path d="M287.605 5.29412C287.605 3.29209 289.256 1.71875 291.191 1.71875C293.126 1.71875 294.85 3.29209 294.85 5.29412C294.85 7.29616 293.199 8.8695 291.191 8.8695C289.183 8.8695 287.605 7.29616 287.605 5.29412ZM294.205 51.2124H288.25V15.5915H294.205V51.2124Z" fill="white"/>
<path d="M328.197 29.2545V51.2126H322.389V30.3263C322.389 23.2441 317.728 20.6719 313.279 20.6719C307.613 20.6719 303.812 24.9632 303.812 30.6864V51.2126H298.004V15.5918H302.449L303.382 19.6687C306.465 16.0934 310.699 14.7344 314.07 14.7344C320.884 14.7344 328.201 19.4544 328.201 29.2545H328.197Z" fill="white"/>
<path d="M353.809 45.9182C361.126 45.9182 366.001 47.4915 366.001 53.7162C366.001 61.3 358.684 65.5913 348.426 65.5184C338.529 65.4455 332.644 61.5143 332.644 54.3593C332.644 52.2158 333.362 50.2095 334.51 48.5675C332.717 46.8527 331.711 44.5635 331.711 42.1284C331.711 39.3376 333.147 36.0494 336.371 34.4032C335.223 32.4741 334.578 30.2534 334.578 27.7498C334.578 20.3847 340.963 14.7344 348.852 14.7344H365.133V19.8145H359.539C361.19 21.8894 362.192 24.5345 362.192 27.7541C362.192 35.2649 356.169 40.9152 348.422 40.9152C345.481 40.9152 342.755 40.1264 340.533 38.6988C338.667 39.269 337.592 40.4136 337.592 42.1327C337.592 44.422 339.815 45.9224 342.687 45.9224H353.804L353.809 45.9182ZM360.193 54.2135C360.193 51.4956 357.828 51.2083 352.519 51.2083H341.401C340.829 51.2083 340.253 51.1355 339.682 51.0669C338.822 52.07 338.392 53.1418 338.392 54.355C338.392 58.2905 341.904 60.1468 348.435 60.1468C355.391 60.1468 360.197 57.7846 360.197 54.2092L360.193 54.2135ZM340.18 27.7498C340.18 32.2554 343.624 35.6893 348.43 35.6893C353.237 35.6893 356.68 32.3283 356.68 27.7498C356.68 23.4585 353.452 20.1703 348.503 20.1703C343.555 20.1703 340.185 23.5313 340.185 27.7498H340.18Z" fill="white"/>
<path fill-rule="evenodd" clip-rule="evenodd" d="M120.751 38.2444C119.72 40.928 117.914 43.1573 115.648 44.7092C113.387 46.2611 110.657 47.1399 107.772 47.1399C103.933 47.1399 100.459 45.588 97.9443 43.0801C95.4293 40.5722 93.873 37.1083 93.873 33.28C93.873 29.4517 95.4293 25.9878 97.9443 23.4799C100.459 20.972 103.933 19.4201 107.772 19.4201C109.66 19.4201 111.491 19.793 113.172 20.5004C114.268 20.9591 115.304 21.5636 116.259 22.2967C115.898 24.6674 114.935 26.8666 113.503 28.7058C111.693 31.0336 109.131 32.787 106.108 33.5972C105.15 33.8545 104.178 34.0088 103.211 34.056C102.226 34.1074 101.246 34.056 100.283 33.8973C108.099 42.7372 120.919 31.5309 121.026 20.3889C119.285 18.6098 117.217 17.2165 114.96 16.2691C112.695 15.3174 110.253 14.8115 107.772 14.8115C102.656 14.8115 98.026 16.8779 94.6727 20.2217C91.3193 23.5656 89.2471 28.1827 89.2471 33.2843C89.2471 33.6701 89.2815 34.0517 89.3073 34.4332C89.2858 34.4118 89.2686 34.3903 89.2471 34.3689C89.2729 34.3946 89.2815 34.4332 89.3073 34.4589C89.346 35.0677 89.4148 35.6636 89.5094 36.2552C88.7355 39.0846 84.5009 43.4917 82.7253 44.7092C80.464 46.2611 77.734 47.1399 74.8493 47.1399C71.0101 47.1399 67.5364 45.588 65.0214 43.0801C62.5064 40.5722 60.9501 37.1083 60.9501 33.28C60.9501 29.4517 62.5064 25.9878 65.0214 23.4799C67.5364 20.972 71.0101 19.4201 74.8493 19.4201C76.7366 19.4201 78.568 19.793 80.249 20.5004C81.3453 20.9591 82.3814 21.5636 83.3358 22.2967C82.9747 24.6674 82.0117 26.8666 80.5801 28.7058C78.7701 31.0336 76.2078 32.787 73.1855 33.5972C72.2268 33.8545 71.2552 34.0088 70.2879 34.056C69.3034 34.1074 68.3232 34.056 67.3601 33.8973C75.176 42.7372 87.9961 31.5309 88.1036 20.3889C86.3624 18.6098 84.2945 17.2165 82.0375 16.2691C79.7718 15.3174 77.3299 14.8115 74.8493 14.8115C69.7333 14.8115 65.1031 16.8779 61.7498 20.2217C58.3964 23.5656 56.3242 28.1827 56.3242 33.2843C56.3242 38.3858 58.3964 43.003 61.7498 46.3468C65.1031 49.6907 69.7333 51.7571 74.8493 51.7571C79.9653 51.7571 87.6221 48.9619 91.3838 41.8841C92.2566 43.5346 93.3614 45.0393 94.6727 46.3468C98.026 49.6907 102.656 51.7571 107.772 51.7571C115.128 51.7571 123.039 46.7498 120.751 38.2444Z" fill="url(#paint0_linear_3809_3972)"/>
</g>
<defs>
<linearGradient id="paint0_linear_3809_3972" x1="69.7032" y1="54.2778" x2="112.239" y2="11.6218" gradientUnits="userSpaceOnUse">
<stop stop-color="#26A74A"/>
<stop offset="1" stop-color="#B3D334"/>
</linearGradient>
<clipPath id="clip0_3809_3972">
<rect width="366" height="65.5185" fill="white"/>
</clipPath>
</defs>
</svg>
